<?xml version="1.0" encoding="utf-8"?>
<!-- Svg Vector Icons : http://www.onlinewebfonts.com/icon -->
<!DOCTYPE svg PUBLIC "-//W3C//DTD SVG 1.1//EN" "http://www.w3.org/Graphics/SVG/1.1/DTD/svg11.dtd">
<svg version="1.1" xmlns="http://www.w3.org/2000/svg" xmlns:xlink="http://www.w3.org/1999/xlink" x="0px" y="0px" viewBox="0 0 1000 1000" enable-background="new 0 0 1000 1000" xml:space="preserve">
<metadata> Svg Vector Icons : http://www.onlinewebfonts.com/icon </metadata>
<g><path d="M396.5,648.7c-19,37.9-3.1,83.7,35.4,102.4c38.5,18.6,85.1,3,104-34.8c18.9-37.9,249.9-538.6,249.9-538.6S415.4,610.8,396.5,648.7z"/><path d="M871.1,307.4c-18.1,21.1-41.6,37-68.6,45.8C868,425.6,908.3,513.6,908.3,619c0,58.2-12.4,114.2-34.4,155.5H724.6c-11.3,0-40.9,24.7-40.9,36v40.8c0,11.3,29.7,4.8,40.9,4.8h101.5h61.8h36C965.7,815.9,990,708.4,990,619C990,496.8,945,393.2,871.1,307.4z"/><path d="M500,136.8C229.4,136.8,10,348.4,10,619c0,89.4,24.3,196.9,66.1,237.2h25.8h72h111.7c5.6,0-9.2,11-9.2,5.4v-61.3c0-5.6,14.8-25.8,9.2-25.8H126.1c-22-41.4-34.4-97.4-34.4-155.5c0-225.5,182.8-404.4,408.3-404.4c36.2,0,71.1,7.1,104.5,16c-1.3-7.9-2.4-15-2.4-23.2c0-20.4,4.2-39.4,11.4-57.2C577,141.4,539.1,136.8,500,136.8z"/></g>
</svg>