<?xml version="1.0" encoding="utf-8"?>
<!-- Svg Vector Icons : http://www.onlinewebfonts.com/icon -->
<!DOCTYPE svg PUBLIC "-//W3C//DTD SVG 1.1//EN" "http://www.w3.org/Graphics/SVG/1.1/DTD/svg11.dtd">
<svg version="1.1" xmlns="http://www.w3.org/2000/svg" xmlns:xlink="http://www.w3.org/1999/xlink" x="0px" y="0px" viewBox="0 0 1000 1000" enable-background="new 0 0 1000 1000" xml:space="preserve">
<metadata> Svg Vector Icons : http://www.onlinewebfonts.com/icon </metadata>
<g><path d="M577.6,500l396.4-396.4c21.4-21.4,21.4-56.1,0-77.6c-21.4-21.4-56.1-21.4-77.6,0L500,422.4L103.6,26.1c-21.4-21.4-56.1-21.4-77.6,0c-21.4,21.4-21.4,56.1,0,77.6L422.4,500L26.1,896.3c-21.4,21.4-21.4,56.1,0,77.6C36.7,984.5,50.8,990,64.9,990c14.1,0,28.1-5.3,38.8-16.1L500,577.5l396.4,396.4c10.6,10.6,24.7,16.1,38.8,16.1c14.1,0,28.1-5.3,38.8-16.1c21.4-21.4,21.4-56.1,0-77.6L577.6,500z"/></g>
</svg>