<?xml version="1.0" encoding="utf-8"?>
<!-- Generator: Adobe Illustrator 24.0.1, SVG Export Plug-In . SVG Version: 6.00 Build 0)  -->
<svg version="1.1" id="Layer_1" xmlns="http://www.w3.org/2000/svg" xmlns:xlink="http://www.w3.org/1999/xlink" x="0px" y="0px"
	 viewBox="100 100 430 430" style="enable-background:new 0 0 612 792;" xml:space="preserve">
	 <!--viewBox="0 0 612 792" style="enable-background:new 0 0 612 792;" xml:space="preserve">-->
<style type="text/css">
	.st0{fill:#FFFFFF;stroke:#0058A9;stroke-width:10;stroke-linecap:round;stroke-linejoin:round;stroke-miterlimit:10;}
	.st1{fill:none;stroke:#0058A9;stroke-width:10;stroke-linecap:round;stroke-linejoin:round;stroke-miterlimit:10;}
	.st2{fill:none;stroke:#0058A9;stroke-linecap:round;stroke-linejoin:round;stroke-miterlimit:10;}
</style>
<polygon class="st0" points="303.03,160.74 363.17,473.05 129.06,409.66 "/>
<polygon class="st1" points="303.03,161.44 363.17,473.51 431.42,376.81 "/>
<line class="st2" x1="359.98" y1="457.29" x2="424.45" y2="366.02"/>
<line class="st2" x1="358.7" y1="451.45" x2="422.06" y2="361.6"/>
<line class="st2" x1="357.3" y1="445.38" x2="419.51" y2="357.17"/>
<line class="st2" x1="363.02" y1="468.73" x2="429.72" y2="374.19"/>
<line class="st2" x1="361.62" y1="462.66" x2="427.51" y2="369.77"/>
<line class="st2" x1="356.25" y1="439.31" x2="417.3" y2="353.09"/>
<line class="st2" x1="355.08" y1="433.12" x2="414.91" y2="348.66"/>
<line class="st2" x1="353.91" y1="426.96" x2="412.02" y2="344.4"/>
<line class="st2" x1="353.08" y1="419.42" x2="409.47" y2="339.1"/>
<line class="st2" x1="351.8" y1="413.58" x2="407.14" y2="335.83"/>
<line class="st2" x1="350.4" y1="407.51" x2="404.57" y2="331.39"/>
<line class="st2" x1="349.35" y1="401.45" x2="401.77" y2="327.42"/>
<line class="st2" x1="348.18" y1="395.26" x2="399.2" y2="323.22"/>
<line class="st2" x1="347.01" y1="389.1" x2="397.1" y2="318.32"/>
<line class="st2" x1="345.51" y1="383.03" x2="394.07" y2="314.58"/>
<line class="st2" x1="344.22" y1="377.19" x2="391.5" y2="310.38"/>
<line class="st2" x1="342.82" y1="371.13" x2="388.93" y2="305.71"/>
<line class="st2" x1="341.77" y1="365.06" x2="386.83" y2="301.98"/>
<line class="st2" x1="340.61" y1="358.87" x2="384.26" y2="297.54"/>
<line class="st2" x1="339.44" y1="352.71" x2="381.69" y2="293.34"/>
<line class="st2" x1="338.61" y1="345.17" x2="379.12" y2="287.97"/>
<line class="st2" x1="337.32" y1="339.33" x2="376.79" y2="284"/>
<line class="st2" x1="335.92" y1="333.26" x2="373.76" y2="280.27"/>
<line class="st2" x1="334.87" y1="327.19" x2="371.65" y2="275.6"/>
<line class="st2" x1="333.71" y1="321" x2="368.62" y2="271.63"/>
<line class="st2" x1="332.54" y1="314.84" x2="366.05" y2="267.66"/>
<line class="st2" x1="331.06" y1="308.73" x2="363.95" y2="262.99"/>
<line class="st2" x1="329.66" y1="302.66" x2="361.15" y2="258.56"/>
<line class="st2" x1="328.61" y1="296.59" x2="358.35" y2="254.82"/>
<line class="st2" x1="327.44" y1="290.4" x2="356.01" y2="250.39"/>
<line class="st2" x1="326.27" y1="284.24" x2="353.91" y2="246.42"/>
<line class="st2" x1="325.44" y1="276.7" x2="350.88" y2="241.52"/>
<line class="st2" x1="324.16" y1="270.87" x2="348.54" y2="236.61"/>
<line class="st2" x1="322.76" y1="264.8" x2="345.98" y2="232.41"/>
<line class="st2" x1="321.71" y1="258.73" x2="343.17" y2="229.14"/>
<line class="st2" x1="320.54" y1="252.54" x2="340.37" y2="224.94"/>
<line class="st2" x1="319.37" y1="246.38" x2="338.04" y2="220.04"/>
<line class="st2" x1="317.89" y1="240.27" x2="335.47" y2="215.6"/>
<line class="st2" x1="316.49" y1="234.2" x2="332.67" y2="211.64"/>
<line class="st2" x1="315.44" y1="228.13" x2="330.57" y2="207.43"/>
<line class="st2" x1="315.05" y1="221.9" x2="328.28" y2="203.3"/>
<line class="st2" x1="313.57" y1="215.79" x2="325.89" y2="198.87"/>
<line class="st2" x1="312.17" y1="209.72" x2="323.34" y2="194.62"/>
<line class="st2" x1="311.12" y1="203.65" x2="320.79" y2="190.7"/>
</svg>
