<?xml version="1.0" encoding="utf-8"?>
<!-- Svg Vector Icons : http://www.onlinewebfonts.com/icon -->
<!DOCTYPE svg PUBLIC "-//W3C//DTD SVG 1.1//EN" "http://www.w3.org/Graphics/SVG/1.1/DTD/svg11.dtd">
<svg version="1.1" xmlns="http://www.w3.org/2000/svg" xmlns:xlink="http://www.w3.org/1999/xlink" x="0px" y="0px" viewBox="0 0 1000 1000" enable-background="new 0 0 1000 1000" xml:space="preserve">
<metadata> Svg Vector Icons : http://www.onlinewebfonts.com/icon </metadata>
<g><g><path d="M903.7,374.5H711.8c-47.7,0-86.4-38.7-86.4-86.3V96.3c0-47.7-38.7-86.3-86.3-86.3h-78.3c-47.7,0-86.3,38.7-86.3,86.3v191.9c0,47.7-38.7,86.3-86.4,86.3H96.3c-47.7,0-86.3,38.7-86.3,86.3v78.3c0,47.7,38.6,86.3,86.3,86.3h191.9c47.7,0,86.4,38.7,86.4,86.3v191.9c0,47.7,38.6,86.3,86.3,86.3h78.3c47.7,0,86.3-38.7,86.3-86.3V711.8c0-47.7,38.7-86.3,86.4-86.3h191.9c47.7,0,86.3-38.7,86.3-86.3v-78.3C990,413.2,951.4,374.5,903.7,374.5z"/></g><g></g><g></g><g></g><g></g><g></g><g></g><g></g><g></g><g></g><g></g><g></g><g></g><g></g><g></g><g></g></g>
</svg>